<svg width="32" height="32" viewBox="0 0 32 32" fill="none" xmlns="http://www.w3.org/2000/svg">
<path d="M13 1.73205C14.8564 0.660254 17.1436 0.660254 19 1.73205L26.8564 6.26795C28.7128 7.33975 29.8564 9.32051 29.8564 11.4641V20.5359C29.8564 22.6795 28.7128 24.6603 26.8564 25.7321L19 30.2679C17.1436 31.3397 14.8564 31.3397 13 30.2679L5.14359 25.7321C3.28719 24.6603 2.14359 22.6795 2.14359 20.5359V11.4641C2.14359 9.32051 3.28719 7.33975 5.14359 6.26795L13 1.73205Z" fill="#2D3748"/>
<path d="M20.6654 17.3333L15.9987 22M15.9987 22L11.332 17.3333M15.9987 22V10" stroke="#FFFFFF" stroke-width="2" stroke-linecap="round" stroke-linejoin="round"/>
</svg>
